<svg viewBox="0 0 34 28" fill="none" xmlns="http://www.w3.org/2000/svg">
    <g filter="url(#filter0_di_742_9272)">
        <path fill-rule="evenodd" clip-rule="evenodd"
            d="M30.6433 8.05004C32.0522 6.34845 31.8148 3.82693 30.1133 2.41807C28.4117 1.00921 25.8902 1.24651 24.4813 2.9481L13.7967 15.8527L8.95214 10.5539C7.46149 8.92354 4.93136 8.81025 3.30095 10.3009C1.67054 11.7916 1.55725 14.3217 3.04791 15.9521L10.4522 24.0505C11.0638 24.7195 11.8505 25.1331 12.6782 25.2852C14.2623 25.9538 16.1605 25.542 17.3135 24.1494L30.6433 8.05004Z"
            fill="#2CD900" />
        <path
            d="M30.1133 2.41807L29.7944 2.80319V2.8032L30.1133 2.41807ZM30.6433 8.05004L30.2582 7.73117L30.6433 8.05004ZM24.4813 2.9481L24.0962 2.62923V2.62923L24.4813 2.9481ZM13.7967 15.8527L13.4277 16.1901L13.8154 16.6141L14.1818 16.1716L13.7967 15.8527ZM8.95214 10.5539L9.32116 10.2166L8.95214 10.5539ZM3.30095 10.3009L2.96357 9.93189H2.96357L3.30095 10.3009ZM3.04791 15.9521L3.41692 15.6147L3.04791 15.9521ZM10.4522 24.0505L10.8212 23.7131L10.4522 24.0505ZM12.6782 25.2852L12.8726 24.8246L12.8223 24.8033L12.7686 24.7934L12.6782 25.2852ZM17.3135 24.1494L17.6987 24.4683L17.3135 24.1494ZM29.7944 2.8032C31.2833 4.03595 31.4909 6.24228 30.2582 7.73117L31.0284 8.36891C32.6134 6.45462 32.3464 3.61791 30.4321 2.03294L29.7944 2.8032ZM24.8664 3.26697C26.0992 1.77808 28.3055 1.57044 29.7944 2.80319L30.4321 2.03294C28.5178 0.447976 25.6811 0.714943 24.0962 2.62923L24.8664 3.26697ZM14.1818 16.1716L24.8664 3.26697L24.0962 2.62923L13.4116 15.5338L14.1818 16.1716ZM8.58313 10.8913L13.4277 16.1901L14.1657 15.5153L9.32116 10.2166L8.58313 10.8913ZM3.63834 10.6699C5.06495 9.36559 7.2788 9.46472 8.58313 10.8913L9.32116 10.2166C7.64417 8.38235 4.79778 8.2549 2.96357 9.93189L3.63834 10.6699ZM3.41692 15.6147C2.1126 14.1881 2.21173 11.9742 3.63834 10.6699L2.96357 9.93189C1.12936 11.6089 1.0019 14.4553 2.67889 16.2895L3.41692 15.6147ZM10.8212 23.7131L3.41692 15.6147L2.67889 16.2895L10.0831 24.3879L10.8212 23.7131ZM12.7686 24.7934C12.0443 24.6603 11.3567 24.2989 10.8212 23.7131L10.0831 24.3879C10.7709 25.1401 11.6566 25.6058 12.5878 25.777L12.7686 24.7934ZM16.9284 23.8305C15.92 25.0485 14.2591 25.4097 12.8726 24.8246L12.4837 25.7459C14.2655 26.4979 16.4011 26.0355 17.6987 24.4683L16.9284 23.8305ZM30.2582 7.73117L16.9284 23.8305L17.6987 24.4683L31.0284 8.36891L30.2582 7.73117Z"
            fill="#00176C" />
    </g>
    <defs>
        <filter id="filter0_di_742_9272" x="0.5" y="-0.0010376" width="32.5625" height="27.7995"
            filterUnits="userSpaceOnUse" color-interpolation-filters="sRGB">
            <feFlood flood-opacity="0" result="BackgroundImageFix" />
            <feColorMatrix in="SourceAlpha" type="matrix" values="0 0 0 0 0 0 0 0 0 0 0 0 0 0 0 0 0 0 127 0"
                result="hardAlpha" />
            <feOffset dy="0.7" />
            <feGaussianBlur stdDeviation="0.5" />
            <feComposite in2="hardAlpha" operator="out" />
            <feColorMatrix type="matrix" values="0 0 0 0 0.00225661 0 0 0 0 0.0761502 0 0 0 0 0.349235 0 0 0 0.8 0" />
            <feBlend mode="normal" in2="BackgroundImageFix" result="effect1_dropShadow_742_9272" />
            <feBlend mode="normal" in="SourceGraphic" in2="effect1_dropShadow_742_9272" result="shape" />
            <feColorMatrix in="SourceAlpha" type="matrix" values="0 0 0 0 0 0 0 0 0 0 0 0 0 0 0 0 0 0 127 0"
                result="hardAlpha" />
            <feOffset dy="-3" />
            <feGaussianBlur stdDeviation="0.5" />
            <feComposite in2="hardAlpha" operator="arithmetic" k2="-1" k3="1" />
            <feColorMatrix type="matrix" values="0 0 0 0 0 0 0 0 0 0.527751 0 0 0 0 0.10555 0 0 0 0.7 0" />
            <feBlend mode="normal" in2="shape" result="effect2_innerShadow_742_9272" />
        </filter>
    </defs>
</svg>