<svg viewBox="0 0 20 20" fill="none" xmlns="http://www.w3.org/2000/svg">
    <g filter="url(#filter0_i_1585_3190)">
        <path fill-rule="evenodd" clip-rule="evenodd"
            d="M12.8574 3C12.8574 1.34315 11.5143 0 9.85742 0C8.20057 0 6.85742 1.34315 6.85742 3V7.14286H3C1.34315 7.14286 0 8.486 0 10.1429C0 11.7997 1.34315 13.1429 3 13.1429H6.85742V17C6.85742 18.6569 8.20057 20 9.85742 20C11.5143 20 12.8574 18.6569 12.8574 17V13.1429H17C18.6569 13.1429 20 11.7997 20 10.1429C20 8.486 18.6569 7.14286 17 7.14286H12.8574V3Z"
            fill="#7100A9" />
    </g>
    <defs>
        <filter id="filter0_i_1585_3190" x="0" y="-0.5" width="20" height="20.5" filterUnits="userSpaceOnUse"
            color-interpolation-filters="sRGB">
            <feFlood flood-opacity="0" result="BackgroundImageFix" />
            <feBlend mode="normal" in="SourceGraphic" in2="BackgroundImageFix" result="shape" />
            <feColorMatrix in="SourceAlpha" type="matrix" values="0 0 0 0 0 0 0 0 0 0 0 0 0 0 0 0 0 0 127 0"
                result="hardAlpha" />
            <feOffset dy="-0.7" />
            <feGaussianBlur stdDeviation="0.25" />
            <feComposite in2="hardAlpha" operator="arithmetic" k2="-1" k3="1" />
            <feColorMatrix type="matrix" values="0 0 0 0 0.782954 0 0 0 0 0.344987 0 0 0 0 1 0 0 0 1 0" />
            <feBlend mode="normal" in2="shape" result="effect1_innerShadow_1585_3190" />
        </filter>
    </defs>
</svg>