<svg viewBox="0 0 16 16" fill="none" xmlns="http://www.w3.org/2000/svg">
    <path fill-rule="evenodd" clip-rule="evenodd"
        d="M1.00015 0.999789C0.226962 1.77299 0.226962 3.02659 1.00015 3.79979L5.19992 7.99958L0.999739 12.1998C0.226547 12.973 0.226547 14.2266 0.999739 14.9998C1.77293 15.773 3.02652 15.773 3.79971 14.9998L7.99989 10.7996L12.2001 14.9998C12.9732 15.773 14.2268 15.773 15 14.9998C15.7732 14.2266 15.7732 12.973 15 12.1998L10.7999 7.99959L14.9996 3.7998C15.7728 3.0266 15.7728 1.773 14.9996 0.999804C14.2264 0.226606 12.9728 0.226606 12.1996 0.999803L7.99989 5.19959L3.80013 0.999789C3.02694 0.226591 1.77335 0.226591 1.00015 0.999789Z"
        fill="#360070" />
</svg>